<svg width="60" height="20" viewBox="0 0 60 20" fill="none" xmlns="http://www.w3.org/2000/svg">
<path d="M43.3728 16.4276C43.1097 16.4274 42.8501 16.4919 42.6147 16.6158C42.3793 16.7398 42.1746 16.9198 42.0168 17.1416V19.2849C42.1902 19.5285 42.4198 19.7215 42.6838 19.8454C42.9479 19.9694 43.2377 20.0201 43.5256 19.9929C43.8136 19.9656 44.0901 19.8613 44.329 19.6898C44.5678 19.5182 44.7611 19.2853 44.8904 19.0129C45.0197 18.7406 45.0807 18.438 45.0677 18.1338C45.0546 17.8296 44.9679 17.534 44.8159 17.2751C44.6638 17.0161 44.4514 16.8024 44.1988 16.6543C43.9463 16.5062 43.6619 16.4285 43.3728 16.4287" fill="white"/>
<path d="M53.5084 5.57361V8.21659C56.8983 8.21659 56.8983 11.0728 56.8983 12.0181H51.814V14.643H60.0001V12.0181C60.0001 11.0728 60.0001 5.57361 53.5084 5.57361Z" fill="white"/>
<path d="M39.8138 16.4275C39.5247 16.4273 39.2403 16.505 38.9877 16.6531C38.7352 16.8013 38.5228 17.015 38.3707 17.2739C38.2186 17.5329 38.132 17.8285 38.1189 18.1327C38.1059 18.4368 38.1669 18.7394 38.2962 19.0118C38.4255 19.2841 38.6187 19.5171 38.8576 19.6886C39.0965 19.8601 39.373 19.9645 39.661 19.9917C39.9489 20.019 40.2387 19.9682 40.5027 19.8443C40.7668 19.7204 40.9964 19.5274 41.1697 19.2837V17.1404C41.0146 16.9157 40.8104 16.7335 40.5744 16.6093C40.3384 16.485 40.0776 16.4223 39.8138 16.4264" fill="white"/>
<path d="M47.0294 12.018H43.1361V6.96672H40.0504V12.018H35.3055V2.14664H32.2198V12.018H24.3903C24.3903 11.2284 24.3903 7.30626 19.7119 6.00225L24.3903 2.07106L22.848 0L16.2202 5.56909V8.19402C21.3056 8.19402 21.3056 11.0682 21.3056 12.0135H8.38965V5.5736H5.28892C4.08579e-07 5.5736 0 8.98364 0 12.018V14.643H5.28892C5.28892 15.8917 5.28892 16.4275 1.899 16.4275L2.74621 19.0513C8.38965 19.0513 8.38965 15.8928 8.38965 14.643H50.1184V2.14664H47.0294V12.018ZM5.28464 12.018H3.08467C3.08467 8.98364 3.10181 8.19853 5.28892 8.19853L5.28464 12.018Z" fill="white"/>
<path d="M9.59131 19.6165V15.6131H11.2172C11.7399 15.6131 12.1372 15.7748 12.4093 16.0982C12.6813 16.4215 12.817 16.8942 12.8163 17.5161C12.8163 18.2034 12.6753 18.7253 12.3932 19.0818C12.1112 19.4383 11.6963 19.6165 11.1486 19.6165H9.59131ZM10.385 18.9284H11.0533C11.192 18.9382 11.3309 18.9119 11.4577 18.8519C11.5845 18.792 11.6954 18.7001 11.7806 18.5843C11.9427 18.3542 12.0233 18.0098 12.0226 17.5511C12.0226 17.1337 11.9473 16.8208 11.7966 16.6125C11.7158 16.5069 11.612 16.4235 11.4939 16.3693C11.3759 16.3151 11.2471 16.2917 11.1186 16.3012H10.385V18.9284Z" fill="white"/>
<path d="M15.4875 19.692C15.2561 19.7038 15.0296 19.6196 14.8566 19.4574C14.7773 19.3778 14.7151 19.2812 14.6741 19.1742C14.6331 19.0672 14.6143 18.9523 14.6188 18.837C14.6072 18.6 14.6841 18.3676 14.833 18.1895C15.0016 18.0142 15.2226 17.9057 15.4585 17.8827L15.9491 17.8105C16.0598 17.7969 16.168 17.7665 16.2704 17.7202C16.3083 17.6981 16.3375 17.6625 16.3529 17.6198C16.3692 17.5847 16.3776 17.5461 16.3775 17.507C16.3785 17.4954 16.3785 17.4837 16.3775 17.4721C16.3732 17.4319 16.3599 17.3933 16.3387 17.3595C16.3175 17.3258 16.2889 17.2979 16.2554 17.2781C16.1443 17.2145 16.0185 17.1852 15.8923 17.1935C15.7723 17.1869 15.6541 17.2271 15.5603 17.3063C15.5197 17.3452 15.4876 17.3928 15.466 17.4459C15.4444 17.4991 15.4338 17.5564 15.435 17.6142H14.7216C14.7381 17.2683 14.8505 17.0085 15.059 16.8347C15.2679 16.6621 15.5742 16.5753 15.9759 16.5753C16.2691 16.5582 16.5599 16.64 16.8059 16.8088C16.9027 16.8799 16.9812 16.9753 17.0341 17.0864C17.087 17.1975 17.1128 17.3208 17.109 17.445V19.1043C17.104 19.1984 17.1145 19.2927 17.1401 19.383C17.1522 19.4116 17.1696 19.4375 17.1913 19.459C17.213 19.4805 17.2386 19.4972 17.2665 19.5082V19.621H16.4632C16.431 19.5064 16.4092 19.389 16.3979 19.2702V19.2634C16.2889 19.4041 16.1508 19.5165 15.994 19.592C15.8373 19.6675 15.6662 19.704 15.4939 19.6988L15.4875 19.692ZM16.385 18.5279V18.1895C16.2774 18.2478 16.1623 18.2892 16.0433 18.3125L15.7702 18.3655C15.6613 18.3807 15.559 18.4289 15.4757 18.5042C15.4424 18.5373 15.4162 18.5774 15.3989 18.6219C15.3815 18.6665 15.3734 18.7144 15.375 18.7625C15.3691 18.8643 15.4014 18.9643 15.465 19.0412C15.4979 19.0756 15.5373 19.1023 15.5806 19.1196C15.624 19.1369 15.6704 19.1444 15.7167 19.1416C15.8245 19.1463 15.932 19.125 16.0309 19.0795C16.1298 19.034 16.2176 18.9653 16.2875 18.8787C16.32 18.833 16.3433 18.7808 16.3561 18.7253C16.3749 18.6614 16.3847 18.5949 16.385 18.5279Z" fill="white"/>
<path d="M19.9808 15.6131H19.2407V19.6176H19.9808V15.6131Z" fill="white"/>
<path d="M23.2667 19.692C22.8383 19.692 22.5084 19.5533 22.2771 19.2758C22.0457 18.9983 21.9297 18.6027 21.929 18.0891C21.929 17.6153 22.0471 17.2442 22.2835 16.9757C22.5198 16.7073 22.8476 16.5734 23.2667 16.5742C23.6951 16.5742 24.0254 16.7107 24.2575 16.9836C24.4895 17.2566 24.6052 17.6462 24.6045 18.1523C24.6055 18.1665 24.6055 18.1809 24.6045 18.1951C24.6042 18.2396 24.5992 18.2839 24.5895 18.3271H22.6723C22.6752 18.5134 22.7267 18.6953 22.8212 18.8528C22.924 19.0032 23.0964 19.0784 23.3385 19.0784C23.4492 19.0781 23.5573 19.0432 23.6491 18.978C23.692 18.9514 23.7294 18.916 23.7592 18.874C23.789 18.832 23.8106 18.7841 23.8226 18.7332H24.5777C24.5215 19.0213 24.3619 19.2755 24.1321 19.4427C23.8747 19.6206 23.5711 19.7097 23.2635 19.6977L23.2667 19.692ZM23.829 17.8353C23.8227 17.686 23.7763 17.5417 23.6951 17.4191C23.6417 17.3511 23.5735 17.2976 23.4963 17.2633C23.4192 17.2289 23.3353 17.2146 23.2517 17.2216C23.1667 17.2169 23.0818 17.2351 23.0053 17.2746C22.9289 17.3141 22.8632 17.3735 22.8147 17.4473C22.7467 17.5643 22.7013 17.6942 22.6808 17.8297L23.829 17.8353Z" fill="white"/>
<path d="M27.3207 15.6131H26.5806V19.6176H27.3207V15.6131Z" fill="white"/>
<path d="M29.5132 19.6165V15.6131H30.2533V17.7767L31.1808 16.652H32.0966L31.0791 17.7767L32.1202 19.6165H31.2397L30.5618 18.3429L30.2533 18.6836V19.6165H29.5132Z" fill="white"/>
<path d="M35.1749 19.692C34.7343 19.692 34.3844 19.5533 34.1252 19.2758C33.866 18.9983 33.7361 18.6223 33.7354 18.1478C33.7354 17.665 33.8653 17.2814 34.1252 16.9972C34.3851 16.7129 34.735 16.5704 35.1749 16.5696C35.6161 16.5696 35.9664 16.7121 36.2256 16.9972C36.4848 17.2822 36.614 17.6657 36.6133 18.1478C36.6133 18.6193 36.4841 18.9953 36.2256 19.2758C35.9671 19.5563 35.6169 19.695 35.1749 19.692ZM35.1749 19.0412C35.2697 19.0478 35.3647 19.0309 35.4522 18.9917C35.5396 18.9525 35.6171 18.8921 35.6783 18.8155C35.8063 18.6196 35.8678 18.3839 35.8528 18.1466C35.8675 17.9069 35.8061 17.6688 35.6783 17.4698C35.6142 17.3962 35.5364 17.3374 35.4496 17.2972C35.3629 17.257 35.2691 17.2362 35.1743 17.2362C35.0795 17.2362 34.9858 17.257 34.899 17.2972C34.8123 17.3374 34.7344 17.3962 34.6704 17.4698C34.5451 17.6698 34.4853 17.9075 34.5001 18.1466C34.485 18.3833 34.5449 18.6186 34.6704 18.8155C34.7316 18.8924 34.8092 18.953 34.8969 18.9922C34.9846 19.0314 35.0798 19.0482 35.1749 19.0412Z" fill="white"/>
</svg>
